<mxfile host="app.diagrams.net" modified="2023-10-26T12:53:18.667Z" agent="Mozilla/5.0 (Macintosh; Intel Mac OS X 10_15_7) AppleWebKit/537.36 (KHTML, like Gecko) Chrome/117.0.0.0 Safari/537.36" etag="HlDLSV_jsArdWzUTb3Vy" version="22.0.8" type="github">
  <diagram name="Page-1" id="6m90D161MwOEndjrrJKq">
    <mxGraphModel dx="1482" dy="789" grid="1" gridSize="10" guides="1" tooltips="1" connect="1" arrows="1" fold="1" page="1" pageScale="1" pageWidth="827" pageHeight="1169" math="0" shadow="0">
      <root>
        <mxCell id="0" />
        <mxCell id="1" parent="0" />
        <mxCell id="KWfcdTpOeOkW_hHO3nyc-1" style="edgeStyle=orthogonalEdgeStyle;rounded=0;orthogonalLoop=1;jettySize=auto;html=1;exitX=0.5;exitY=1;exitDx=0;exitDy=0;strokeColor=#0B4D6A;endArrow=none;endFill=0;labelBackgroundColor=none;fontColor=default;fontSize=14;" edge="1" parent="1" source="KWfcdTpOeOkW_hHO3nyc-2" target="KWfcdTpOeOkW_hHO3nyc-8">
          <mxGeometry relative="1" as="geometry" />
        </mxCell>
        <mxCell id="KWfcdTpOeOkW_hHO3nyc-2" value="主管领导：刘永江" style="rounded=1;whiteSpace=wrap;html=1;labelBackgroundColor=none;fillColor=#09555B;strokeColor=#BAC8D3;fontColor=#EEEEEE;fontSize=14;" vertex="1" parent="1">
          <mxGeometry x="360" y="30" width="120" height="60" as="geometry" />
        </mxCell>
        <mxCell id="KWfcdTpOeOkW_hHO3nyc-3" style="edgeStyle=orthogonalEdgeStyle;rounded=0;orthogonalLoop=1;jettySize=auto;html=1;exitX=0.5;exitY=1;exitDx=0;exitDy=0;strokeColor=#0B4D6A;fontSize=14;endArrow=none;endFill=0;" edge="1" parent="1" source="KWfcdTpOeOkW_hHO3nyc-8" target="KWfcdTpOeOkW_hHO3nyc-24">
          <mxGeometry relative="1" as="geometry" />
        </mxCell>
        <mxCell id="KWfcdTpOeOkW_hHO3nyc-4" style="edgeStyle=orthogonalEdgeStyle;rounded=0;orthogonalLoop=1;jettySize=auto;html=1;exitX=0.5;exitY=1;exitDx=0;exitDy=0;entryX=0.5;entryY=0;entryDx=0;entryDy=0;strokeColor=#0B4D6A;labelBackgroundColor=none;endArrow=none;endFill=0;fontSize=14;" edge="1" parent="1" source="KWfcdTpOeOkW_hHO3nyc-8" target="KWfcdTpOeOkW_hHO3nyc-18">
          <mxGeometry relative="1" as="geometry">
            <Array as="points">
              <mxPoint x="420" y="340" />
              <mxPoint x="234" y="340" />
            </Array>
          </mxGeometry>
        </mxCell>
        <mxCell id="KWfcdTpOeOkW_hHO3nyc-5" style="edgeStyle=orthogonalEdgeStyle;rounded=0;orthogonalLoop=1;jettySize=auto;html=1;exitX=0.5;exitY=1;exitDx=0;exitDy=0;entryX=0.5;entryY=0;entryDx=0;entryDy=0;strokeColor=#0B4D6A;labelBackgroundColor=none;endArrow=none;endFill=0;fontSize=14;" edge="1" parent="1" source="KWfcdTpOeOkW_hHO3nyc-8" target="KWfcdTpOeOkW_hHO3nyc-17">
          <mxGeometry relative="1" as="geometry">
            <Array as="points">
              <mxPoint x="420" y="340" />
              <mxPoint x="60" y="340" />
            </Array>
          </mxGeometry>
        </mxCell>
        <mxCell id="KWfcdTpOeOkW_hHO3nyc-6" style="edgeStyle=orthogonalEdgeStyle;rounded=0;orthogonalLoop=1;jettySize=auto;html=1;exitX=0.5;exitY=1;exitDx=0;exitDy=0;entryX=0.5;entryY=0;entryDx=0;entryDy=0;strokeColor=#0B4D6A;labelBackgroundColor=none;endArrow=none;endFill=0;fontSize=14;" edge="1" parent="1" source="KWfcdTpOeOkW_hHO3nyc-8" target="KWfcdTpOeOkW_hHO3nyc-25">
          <mxGeometry relative="1" as="geometry">
            <Array as="points">
              <mxPoint x="420" y="340" />
              <mxPoint x="600" y="340" />
            </Array>
          </mxGeometry>
        </mxCell>
        <mxCell id="KWfcdTpOeOkW_hHO3nyc-7" style="edgeStyle=orthogonalEdgeStyle;rounded=0;orthogonalLoop=1;jettySize=auto;html=1;exitX=0.5;exitY=1;exitDx=0;exitDy=0;strokeColor=#0B4D6A;labelBackgroundColor=none;endArrow=none;endFill=0;fontSize=14;" edge="1" parent="1" source="KWfcdTpOeOkW_hHO3nyc-8" target="KWfcdTpOeOkW_hHO3nyc-28">
          <mxGeometry relative="1" as="geometry">
            <Array as="points">
              <mxPoint x="420" y="340" />
              <mxPoint x="780" y="340" />
            </Array>
          </mxGeometry>
        </mxCell>
        <mxCell id="KWfcdTpOeOkW_hHO3nyc-8" value="项目经理：袁希文" style="rounded=1;whiteSpace=wrap;html=1;labelBackgroundColor=none;fillColor=#09555B;strokeColor=#BAC8D3;fontColor=#EEEEEE;fontSize=14;" vertex="1" parent="1">
          <mxGeometry x="360" y="160" width="120" height="60" as="geometry" />
        </mxCell>
        <mxCell id="KWfcdTpOeOkW_hHO3nyc-9" style="edgeStyle=orthogonalEdgeStyle;rounded=0;orthogonalLoop=1;jettySize=auto;html=1;exitX=1;exitY=0.5;exitDx=0;exitDy=0;entryX=0.5;entryY=0;entryDx=0;entryDy=0;strokeColor=#0B4D6A;endArrow=none;endFill=0;labelBackgroundColor=none;fontColor=default;fontSize=14;" edge="1" parent="1" source="KWfcdTpOeOkW_hHO3nyc-10" target="KWfcdTpOeOkW_hHO3nyc-8">
          <mxGeometry relative="1" as="geometry" />
        </mxCell>
        <mxCell id="KWfcdTpOeOkW_hHO3nyc-10" value="分管领导：李程" style="rounded=1;whiteSpace=wrap;html=1;strokeColor=#BAC8D3;fontColor=#EEEEEE;fillColor=#09555B;labelBackgroundColor=none;fontSize=14;" vertex="1" parent="1">
          <mxGeometry x="174" y="90" width="120" height="60" as="geometry" />
        </mxCell>
        <mxCell id="KWfcdTpOeOkW_hHO3nyc-11" style="edgeStyle=orthogonalEdgeStyle;rounded=0;orthogonalLoop=1;jettySize=auto;html=1;exitX=1;exitY=0.5;exitDx=0;exitDy=0;entryX=0.5;entryY=0;entryDx=0;entryDy=0;strokeColor=#0B4D6A;fontSize=14;labelBackgroundColor=none;endArrow=none;endFill=0;" edge="1" parent="1" source="KWfcdTpOeOkW_hHO3nyc-12" target="KWfcdTpOeOkW_hHO3nyc-24">
          <mxGeometry relative="1" as="geometry" />
        </mxCell>
        <mxCell id="KWfcdTpOeOkW_hHO3nyc-12" value="执行经理：黄瑞鹏黄文静" style="rounded=1;whiteSpace=wrap;html=1;strokeColor=#BAC8D3;fontColor=#EEEEEE;fillColor=#09555B;labelBackgroundColor=none;fontSize=14;" vertex="1" parent="1">
          <mxGeometry x="174" y="240" width="120" height="60" as="geometry" />
        </mxCell>
        <mxCell id="KWfcdTpOeOkW_hHO3nyc-13" style="edgeStyle=orthogonalEdgeStyle;rounded=0;orthogonalLoop=1;jettySize=auto;html=1;exitX=0.5;exitY=1;exitDx=0;exitDy=0;entryX=0.5;entryY=0;entryDx=0;entryDy=0;strokeColor=#0B4D6A;fontSize=14;endArrow=none;endFill=0;" edge="1" parent="1" source="KWfcdTpOeOkW_hHO3nyc-14" target="KWfcdTpOeOkW_hHO3nyc-24">
          <mxGeometry relative="1" as="geometry">
            <Array as="points">
              <mxPoint x="600" y="210" />
              <mxPoint x="510" y="210" />
              <mxPoint x="510" y="270" />
              <mxPoint x="420" y="270" />
            </Array>
          </mxGeometry>
        </mxCell>
        <mxCell id="KWfcdTpOeOkW_hHO3nyc-14" value="确认组：李爽" style="rounded=1;whiteSpace=wrap;html=1;strokeColor=#BAC8D3;fontColor=#EEEEEE;fillColor=#09555B;labelBackgroundColor=none;fontSize=14;" vertex="1" parent="1">
          <mxGeometry x="540" y="90" width="120" height="60" as="geometry" />
        </mxCell>
        <mxCell id="KWfcdTpOeOkW_hHO3nyc-15" style="edgeStyle=orthogonalEdgeStyle;rounded=0;orthogonalLoop=1;jettySize=auto;html=1;exitX=0;exitY=0.5;exitDx=0;exitDy=0;strokeColor=#0B4D6A;labelBackgroundColor=none;endArrow=none;endFill=0;fontSize=14;" edge="1" parent="1" source="KWfcdTpOeOkW_hHO3nyc-16">
          <mxGeometry relative="1" as="geometry">
            <mxPoint x="420" y="390.0000000000001" as="targetPoint" />
          </mxGeometry>
        </mxCell>
        <mxCell id="KWfcdTpOeOkW_hHO3nyc-16" value="配置管理：杨翠霞" style="rounded=1;whiteSpace=wrap;html=1;strokeColor=#BAC8D3;fontColor=#EEEEEE;fillColor=#09555B;labelBackgroundColor=none;fontSize=14;" vertex="1" parent="1">
          <mxGeometry x="540" y="240" width="120" height="60" as="geometry" />
        </mxCell>
        <mxCell id="KWfcdTpOeOkW_hHO3nyc-17" value="安全组：王键" style="rounded=1;whiteSpace=wrap;html=1;strokeColor=#BAC8D3;fontColor=#EEEEEE;fillColor=#09555B;labelBackgroundColor=none;fontSize=14;" vertex="1" parent="1">
          <mxGeometry y="390" width="120" height="60" as="geometry" />
        </mxCell>
        <mxCell id="KWfcdTpOeOkW_hHO3nyc-18" value="质量组：赵煜亮" style="rounded=1;whiteSpace=wrap;html=1;strokeColor=#BAC8D3;fontColor=#EEEEEE;fillColor=#09555B;labelBackgroundColor=none;fontSize=14;" vertex="1" parent="1">
          <mxGeometry x="180" y="390" width="120" height="60" as="geometry" />
        </mxCell>
        <mxCell id="KWfcdTpOeOkW_hHO3nyc-19" style="edgeStyle=orthogonalEdgeStyle;rounded=0;orthogonalLoop=1;jettySize=auto;html=1;exitX=0;exitY=0.5;exitDx=0;exitDy=0;entryX=0;entryY=0.5;entryDx=0;entryDy=0;strokeColor=#0B4D6A;labelBackgroundColor=none;endArrow=none;endFill=0;fontSize=14;" edge="1" parent="1" source="KWfcdTpOeOkW_hHO3nyc-40" target="KWfcdTpOeOkW_hHO3nyc-35">
          <mxGeometry relative="1" as="geometry" />
        </mxCell>
        <mxCell id="KWfcdTpOeOkW_hHO3nyc-20" style="edgeStyle=orthogonalEdgeStyle;rounded=0;orthogonalLoop=1;jettySize=auto;html=1;exitX=0;exitY=0.5;exitDx=0;exitDy=0;entryX=0;entryY=0.5;entryDx=0;entryDy=0;strokeColor=#0B4D6A;labelBackgroundColor=none;endArrow=none;endFill=0;fontSize=14;" edge="1" parent="1" source="KWfcdTpOeOkW_hHO3nyc-40" target="KWfcdTpOeOkW_hHO3nyc-36">
          <mxGeometry relative="1" as="geometry" />
        </mxCell>
        <mxCell id="KWfcdTpOeOkW_hHO3nyc-21" style="edgeStyle=orthogonalEdgeStyle;rounded=0;orthogonalLoop=1;jettySize=auto;html=1;exitX=0;exitY=0.5;exitDx=0;exitDy=0;entryX=0;entryY=0.5;entryDx=0;entryDy=0;strokeColor=#0B4D6A;labelBackgroundColor=none;endArrow=none;endFill=0;fontSize=14;" edge="1" parent="1" source="KWfcdTpOeOkW_hHO3nyc-40" target="KWfcdTpOeOkW_hHO3nyc-37">
          <mxGeometry relative="1" as="geometry" />
        </mxCell>
        <mxCell id="KWfcdTpOeOkW_hHO3nyc-22" style="edgeStyle=orthogonalEdgeStyle;rounded=0;orthogonalLoop=1;jettySize=auto;html=1;exitX=0.5;exitY=1;exitDx=0;exitDy=0;entryX=0.5;entryY=0;entryDx=0;entryDy=0;strokeColor=#0B4D6A;labelBackgroundColor=none;endArrow=none;fontSize=14;endFill=0;" edge="1" parent="1" source="KWfcdTpOeOkW_hHO3nyc-24" target="KWfcdTpOeOkW_hHO3nyc-41">
          <mxGeometry relative="1" as="geometry" />
        </mxCell>
        <mxCell id="KWfcdTpOeOkW_hHO3nyc-23" style="edgeStyle=orthogonalEdgeStyle;rounded=0;orthogonalLoop=1;jettySize=auto;html=1;exitX=0.25;exitY=1;exitDx=0;exitDy=0;entryX=0.5;entryY=0;entryDx=0;entryDy=0;strokeColor=#0B4D6A;labelBackgroundColor=none;endArrow=none;fontSize=14;endFill=0;" edge="1" parent="1" source="KWfcdTpOeOkW_hHO3nyc-24" target="KWfcdTpOeOkW_hHO3nyc-40">
          <mxGeometry relative="1" as="geometry" />
        </mxCell>
        <mxCell id="KWfcdTpOeOkW_hHO3nyc-24" value="设计组：张新锐" style="rounded=1;whiteSpace=wrap;html=1;strokeColor=#BAC8D3;fontColor=#EEEEEE;fillColor=#09555B;labelBackgroundColor=none;fontSize=14;" vertex="1" parent="1">
          <mxGeometry x="360" y="390" width="120" height="60" as="geometry" />
        </mxCell>
        <mxCell id="KWfcdTpOeOkW_hHO3nyc-25" value="验证组：秦涛" style="rounded=1;whiteSpace=wrap;html=1;strokeColor=#BAC8D3;fontColor=#EEEEEE;fillColor=#09555B;labelBackgroundColor=none;fontSize=14;" vertex="1" parent="1">
          <mxGeometry x="540" y="390" width="120" height="60" as="geometry" />
        </mxCell>
        <mxCell id="KWfcdTpOeOkW_hHO3nyc-26" style="edgeStyle=orthogonalEdgeStyle;rounded=0;orthogonalLoop=1;jettySize=auto;html=1;exitX=0;exitY=0.5;exitDx=0;exitDy=0;entryX=0;entryY=0.5;entryDx=0;entryDy=0;strokeColor=#0B4D6A;labelBackgroundColor=none;endArrow=none;fontSize=14;endFill=0;" edge="1" parent="1" source="KWfcdTpOeOkW_hHO3nyc-28" target="KWfcdTpOeOkW_hHO3nyc-38">
          <mxGeometry relative="1" as="geometry" />
        </mxCell>
        <mxCell id="KWfcdTpOeOkW_hHO3nyc-28" value="测试组" style="rounded=1;whiteSpace=wrap;html=1;strokeColor=#BAC8D3;fontColor=#EEEEEE;fillColor=#09555B;labelBackgroundColor=none;fontSize=14;" vertex="1" parent="1">
          <mxGeometry x="720" y="390" width="120" height="60" as="geometry" />
        </mxCell>
        <mxCell id="KWfcdTpOeOkW_hHO3nyc-29" style="edgeStyle=orthogonalEdgeStyle;rounded=0;orthogonalLoop=1;jettySize=auto;html=1;exitX=0;exitY=0.5;exitDx=0;exitDy=0;strokeColor=#0B4D6A;labelBackgroundColor=none;endArrow=none;endFill=0;fontSize=14;" edge="1" parent="1" source="KWfcdTpOeOkW_hHO3nyc-30" target="KWfcdTpOeOkW_hHO3nyc-28">
          <mxGeometry relative="1" as="geometry" />
        </mxCell>
        <mxCell id="KWfcdTpOeOkW_hHO3nyc-30" value="最终确认" style="rounded=1;whiteSpace=wrap;html=1;strokeColor=#A50040;fontColor=#ffffff;fillColor=#d80073;labelBackgroundColor=none;fontSize=14;" vertex="1" parent="1">
          <mxGeometry x="900" y="390" width="120" height="60" as="geometry" />
        </mxCell>
        <mxCell id="KWfcdTpOeOkW_hHO3nyc-31" style="edgeStyle=orthogonalEdgeStyle;rounded=0;orthogonalLoop=1;jettySize=auto;html=1;exitX=1;exitY=0.5;exitDx=0;exitDy=0;strokeColor=#0B4D6A;labelBackgroundColor=none;endArrow=none;endFill=0;fontSize=14;" edge="1" parent="1" source="KWfcdTpOeOkW_hHO3nyc-32">
          <mxGeometry relative="1" as="geometry">
            <mxPoint x="960" y="390.0000000000001" as="targetPoint" />
          </mxGeometry>
        </mxCell>
        <mxCell id="KWfcdTpOeOkW_hHO3nyc-32" value="软测技术经理：" style="rounded=1;whiteSpace=wrap;html=1;strokeColor=#A50040;fontColor=#ffffff;fillColor=#d80073;labelBackgroundColor=none;fontSize=14;" vertex="1" parent="1">
          <mxGeometry x="800" y="240" width="120" height="60" as="geometry" />
        </mxCell>
        <mxCell id="KWfcdTpOeOkW_hHO3nyc-33" style="edgeStyle=orthogonalEdgeStyle;rounded=0;orthogonalLoop=1;jettySize=auto;html=1;exitX=0.5;exitY=1;exitDx=0;exitDy=0;strokeColor=#0B4D6A;labelBackgroundColor=none;endArrow=none;endFill=0;fontSize=14;" edge="1" parent="1" source="KWfcdTpOeOkW_hHO3nyc-34" target="KWfcdTpOeOkW_hHO3nyc-30">
          <mxGeometry relative="1" as="geometry" />
        </mxCell>
        <mxCell id="KWfcdTpOeOkW_hHO3nyc-34" value="软测项目经理：" style="rounded=1;whiteSpace=wrap;html=1;strokeColor=#A50040;fontColor=#ffffff;fillColor=#d80073;labelBackgroundColor=none;fontSize=14;" vertex="1" parent="1">
          <mxGeometry x="900" y="90" width="120" height="60" as="geometry" />
        </mxCell>
        <mxCell id="KWfcdTpOeOkW_hHO3nyc-35" value="吴斌" style="rounded=0;whiteSpace=wrap;html=1;strokeColor=#6c8ebf;fillColor=#dae8fc;fontSize=14;" vertex="1" parent="1">
          <mxGeometry x="184" y="587" width="120" height="30" as="geometry" />
        </mxCell>
        <mxCell id="KWfcdTpOeOkW_hHO3nyc-36" value="高鑫鹏" style="rounded=0;whiteSpace=wrap;html=1;strokeColor=#6c8ebf;fillColor=#dae8fc;fontSize=14;" vertex="1" parent="1">
          <mxGeometry x="184" y="637" width="120" height="30" as="geometry" />
        </mxCell>
        <mxCell id="KWfcdTpOeOkW_hHO3nyc-37" value="周勇强" style="rounded=0;whiteSpace=wrap;html=1;strokeColor=#6c8ebf;fillColor=#dae8fc;fontSize=14;" vertex="1" parent="1">
          <mxGeometry x="184" y="686.5" width="120" height="30" as="geometry" />
        </mxCell>
        <mxCell id="KWfcdTpOeOkW_hHO3nyc-38" value="杨颖" style="rounded=0;whiteSpace=wrap;html=1;strokeColor=#6c8ebf;fillColor=#dae8fc;fontSize=14;" vertex="1" parent="1">
          <mxGeometry x="720" y="470" width="120" height="30" as="geometry" />
        </mxCell>
        <mxCell id="KWfcdTpOeOkW_hHO3nyc-40" value="应用程序：张新锐" style="rounded=1;whiteSpace=wrap;html=1;strokeColor=#BAC8D3;fontColor=#EEEEEE;fillColor=#09555B;labelBackgroundColor=none;fontSize=14;" vertex="1" parent="1">
          <mxGeometry x="184" y="512" width="120" height="60" as="geometry" />
        </mxCell>
        <mxCell id="KWfcdTpOeOkW_hHO3nyc-41" value="通信组件：石焜" style="rounded=1;whiteSpace=wrap;html=1;strokeColor=#BAC8D3;fontColor=#EEEEEE;fillColor=#09555B;labelBackgroundColor=none;fontSize=14;" vertex="1" parent="1">
          <mxGeometry x="360" y="512" width="120" height="60" as="geometry" />
        </mxCell>
      </root>
    </mxGraphModel>
  </diagram>
</mxfile>
